<?xml version="1.0" encoding="UTF-8"?>
<svg xmlns="http://www.w3.org/2000/svg" id="Layer_2" data-name="Layer 2" viewBox="0 0 1291.87 180.95">
  <defs>
    <style>
      .cls-1 {
        fill: #00c853;
      }
    </style>
  </defs>
  <g id="Layer_1-2" data-name="Layer 1">
    <g>
      <rect class="cls-1" y=".19" width="180.76" height="180.76" rx="24.28" ry="24.28"></rect>
      <g>
        <rect x="110.51" y="90.06" width="42.94" height="41.71" rx="5.23" ry="5.23"></rect>
        <path d="M67.83,48.85h44.01c.16,49.87-31.48,83.43-84.54,83.43v-41.71c30.31-.08,41.59-16.09,40.53-41.71Z"></path>
      </g>
      <path d="M316.57,177.2c-10.28,0-17.38-6.85-17.87-17.13l-.25-8.81c-7.1,19.33-25.94,29.37-44.54,28.64-22.52-.73-44.79-17.38-44.79-51.64V57.52h31.33v70.73c0,16.64,10.77,24.23,23.25,25.45,16.15,1.22,33.78-7.83,33.78-30.1V57.52h30.35v94.72h11.01v24.96h-22.27Z"></path>
      <path d="M355.72,177.2V57.52h29.86v26.43c8.08-18.11,23.01-28.88,38.92-28.88,39.16,0,48.95,27.66,48.95,54.82v67.31h-29.37v-62.9c0-18.36-7.83-31.33-26.68-31.33-21.29,0-31.33,21.78-31.33,34.26v59.96h-30.35Z"></path>
      <path d="M505.26,177.2v-93.49h-22.76v-26.92h22.52v-13.71c0-23.5,13.22-35,33.04-37.45l45.03-5.63v28.39l-36.96,4.9c-5.63.98-9.55,4.65-9.55,11.5v11.99h37.94v26.92h-38.18v93.49h-31.08Z"></path>
      <path d="M644.28,55.07c-41.36,0-65.1,29.86-65.1,62.9,0,35.98,28.64,61.68,65.1,61.68s65.1-25.7,65.1-61.68c0-32.8-23.5-62.9-65.1-62.9ZM644.28,151.74c-21.05,0-34.51-15.17-34.51-34.26s13.22-34.51,34.51-34.51,34.51,15.17,34.51,34.51-13.22,34.26-34.51,34.26Z"></path>
      <path d="M755.15,9.3v141.95h21.29v27.66h-18.36c-20.07-.24-33.29-10.52-33.29-31.33V9.3h30.35Z"></path>
      <path d="M884.37,3.67v79.3c-8.08-18.6-23.25-27.9-41.12-27.9-35,0-58.98,28.64-58.98,63.15s25.21,61.92,59.47,61.68c19.09,0,35.98-12.24,41.36-28.39v25.7h30.35V3.67h-31.08ZM850.35,152.72c-21.05,0-34.51-16.15-34.51-35.24s13.46-35.24,34.51-35.24,34.27,15.91,34.27,35.24-13.22,35.24-34.27,35.24Z"></path>
      <path d="M998.91,152.48c15.66,0,27.41-8.08,32.55-20.07l23.74,11.99c-6.85,20.56-26.68,35.98-56.29,35.98-36.47,0-65.59-25.21-65.59-62.9s29.37-62.41,65.59-62.41c29.61,0,49.44,15.42,56.29,35.98l-23.74,11.99c-5.14-11.99-16.89-20.07-32.55-20.07-21.05,0-34.76,14.2-34.76,34.26s13.22,35.24,34.76,35.24Z"></path>
      <path d="M1084.57,56.78c10.28,0,17.13,6.61,17.13,16.89v2.2c7.83-11.01,19.58-20.07,31.08-20.07h26.68v28.64h-30.84c-18.6,0-26.43,11.5-26.43,32.55v60.21h-30.35v-92.76h-11.01v-27.66h23.74Z"></path>
      <path d="M1226.77,55.07c-41.36,0-65.1,29.86-65.1,62.9,0,35.98,28.64,61.68,65.1,61.68s65.1-25.7,65.1-61.68c0-32.8-23.5-62.9-65.1-62.9ZM1226.77,151.74c-21.05,0-34.51-15.17-34.51-34.26s13.22-34.51,34.51-34.51,34.51,15.17,34.51,34.51-13.22,34.26-34.51,34.26Z"></path>
    </g>
  </g>
</svg>
